<?xml version="1.0" encoding="utf-8"?>
<!-- Generator: Adobe Illustrator 16.0.0, SVG Export Plug-In . SVG Version: 6.00 Build 0)  -->
<!DOCTYPE svg PUBLIC "-//W3C//DTD SVG 1.1//EN" "http://www.w3.org/Graphics/SVG/1.1/DTD/svg11.dtd">
<svg version="1.1" id="Layer_1" xmlns="http://www.w3.org/2000/svg" xmlns:xlink="http://www.w3.org/1999/xlink" x="0px" y="0px"
	 width="1080px" height="1080px" viewBox="0 0 1080 1080" enable-background="new 0 0 1080 1080" xml:space="preserve">
<g>
	<path fill="#EE2327" d="M795.002,264.931c0,0-76.131,22.705-110.188,111.523s32.054,166.283,55.094,182.31
		c23.039,16.028,50.085,28.717,55.095,30.386c5.008,1.67,15.693,8.682-2.338,21.37s-153.93,82.474-271.462-25.043l-28.716-301.18
		c0,0,45.411-36.729,84.144-56.095c38.732-19.366,133.561-30.051,186.985,0C817.039,258.253,806.187,260.55,795.002,264.931z"/>
	<path fill="#FFC60A" d="M403.045,230.785c-0.051-14.698,13.993-25.652,28.093-21.501c0.192,0.056,0.385,0.115,0.579,0.175
		c19.366,6.055,124.21,48.127,155.597,160.986C618.7,483.303,541.235,594.158,473.12,620.203
		c-68.116,26.044-119.871,33.723-181.309,13.689c-61.438-20.034,6.01-46.412,20.034-52.09c14.024-5.675,91.823-49.75,91.823-114.527
		C403.668,412.731,403.194,273.432,403.045,230.785z"/>
	<g>
		<path d="M163.901,871.604c-22.478,0-38.214-9.059-47.204-27.18l24.317-13.895c4.496,8.992,12.124,13.488,22.887,13.488
			c7.491,0,13.079-1.769,16.756-5.313c3.679-3.542,5.518-8.378,5.518-14.51V725.7h27.995v98.495c0,14.986-4.7,26.636-14.099,34.942
			C190.671,867.452,178.615,871.604,163.901,871.604z"/>
		<path d="M302.65,766.57h26.36v102.174h-26.36v-12.056c-7.904,9.947-19.005,14.916-33.309,14.916
			c-13.625,0-25.308-5.212-35.045-15.632c-9.741-10.42-14.611-23.192-14.611-38.315s4.87-27.895,14.611-38.314
			c9.737-10.421,21.421-15.634,35.045-15.634c14.304,0,25.405,4.975,33.309,14.916V766.57z M254.015,838.399
			c5.314,5.384,12.055,8.072,20.23,8.072c8.174,0,14.949-2.688,20.333-8.072c5.381-5.38,8.072-12.294,8.072-20.742
			c0-8.443-2.691-15.358-8.072-20.743c-5.384-5.379-12.159-8.072-20.333-8.072c-8.175,0-14.916,2.693-20.23,8.072
			c-5.313,5.385-7.968,12.3-7.968,20.743C246.047,826.105,248.702,833.02,254.015,838.399z"/>
		<path d="M376.716,844.019h45.364v24.726H341.51v-17.549l43.083-59.9h-41.074V766.57h76.556v17.518L376.716,844.019z"/>
		<path d="M463.155,844.019h45.364v24.726h-80.57v-17.549l43.083-59.9h-41.074V766.57h76.557v17.518L463.155,844.019z"/>
		<path d="M588.94,871.604c-21.526,0-39.306-7.153-53.334-21.454c-14.034-14.307-21.048-31.945-21.048-52.927
			c0-21.117,7.014-38.793,21.048-53.031c14.029-14.231,31.808-21.353,53.334-21.353c12.94,0,24.896,3.032,35.861,9.093
			c10.966,6.065,19.517,14.275,25.647,24.625l-24.317,14.098c-3.544-6.402-8.582-11.406-15.122-15.019
			c-6.538-3.606-13.895-5.414-22.069-5.414c-13.896,0-25.103,4.361-33.615,13.076c-8.515,8.723-12.772,20.026-12.772,33.925
			c0,13.763,4.258,25,12.772,33.718c8.513,8.718,19.72,13.077,33.615,13.077c8.175,0,15.563-1.804,22.17-5.416
			c6.608-3.606,11.615-8.546,15.021-14.813l24.317,14.098c-6.131,10.354-14.646,18.563-25.543,24.624
			C614.004,868.576,602.02,871.604,588.94,871.604z"/>
		<path d="M740.77,766.57h26.359v102.174H740.77v-12.056c-7.904,9.947-19.005,14.916-33.309,14.916
			c-13.625,0-25.309-5.212-35.046-15.632c-9.741-10.42-14.61-23.192-14.61-38.315s4.869-27.895,14.61-38.314
			c9.737-10.421,21.421-15.634,35.046-15.634c14.304,0,25.404,4.975,33.309,14.916V766.57z M692.135,838.399
			c5.313,5.384,12.055,8.072,20.229,8.072c8.173,0,14.948-2.688,20.333-8.072c5.381-5.38,8.072-12.294,8.072-20.742
			c0-8.443-2.691-15.358-8.072-20.743c-5.385-5.379-12.16-8.072-20.333-8.072c-8.175,0-14.916,2.693-20.229,8.072
			c-5.314,5.385-7.969,12.3-7.969,20.743C684.166,826.105,686.82,833.02,692.135,838.399z"/>
		<path d="M806.363,795.588c0,2.729,1.804,4.938,5.416,6.641c3.606,1.705,8,3.205,13.18,4.495c5.175,1.296,10.35,2.932,15.531,4.903
			c5.175,1.977,9.568,5.282,13.179,9.912c3.609,4.633,5.415,10.424,5.415,17.369c0,10.495-3.916,18.566-11.749,24.217
			c-7.835,5.65-17.609,8.479-29.324,8.479c-20.98,0-35.284-8.104-42.914-24.319l22.888-12.873
			c2.996,8.859,9.673,13.284,20.026,13.284c9.4,0,14.1-2.927,14.1-8.788c0-2.724-1.807-4.934-5.415-6.641
			c-3.609-1.702-8.004-3.236-13.182-4.597c-5.179-1.362-10.354-3.064-15.529-5.11c-5.179-2.043-9.57-5.274-13.182-9.705
			c-3.609-4.425-5.413-9.977-5.413-16.657c0-10.079,3.71-18.011,11.136-23.806c7.424-5.787,16.656-8.684,27.689-8.684
			c8.308,0,15.869,1.875,22.682,5.619c6.813,3.749,12.191,9.094,16.145,16.044l-22.477,12.259c-3.271-6.949-8.72-10.42-16.35-10.42
			c-3.407,0-6.232,0.748-8.48,2.246C807.487,790.96,806.363,793.002,806.363,795.588z"/>
		<path d="M924.68,763.709c11.17,0,20.4,3.75,27.69,11.238c7.285,7.493,10.933,17.852,10.933,31.061v62.736h-26.361v-59.465
			c0-6.813-1.84-12.02-5.518-15.632c-3.679-3.608-8.583-5.415-14.712-5.415c-6.815,0-12.262,2.112-16.348,6.334
			c-4.088,4.223-6.132,10.558-6.132,19.005v55.173H867.87V725.7h26.362v52.315C900.634,768.48,910.785,763.709,924.68,763.709z"/>
	</g>
</g>
</svg>
